<?xml version="1.0" encoding="UTF-8" standalone="no"?>
<svg width="469px" height="139px" viewBox="0 0 469 139" version="1.1" xmlns="http://www.w3.org/2000/svg" xmlns:xlink="http://www.w3.org/1999/xlink">
    <!-- Generator: Sketch 41.2 (35397) - http://www.bohemiancoding.com/sketch -->
    <title>JEN-LOGO</title>
    <desc>Created with Sketch.</desc>
    <defs></defs>
    <g id="Page-1" stroke="none" stroke-width="1" fill="none" fill-rule="evenodd">
        <g id="JEN-LOGO" transform="translate(0.000000, 1.000000)">
            <text id="ATTORNEY-AT-LAW" font-family="HelveticaNeue-UltraLight, Helvetica Neue" font-size="24" font-weight="200" letter-spacing="2.4000001" fill="#073A89">
                <tspan x="122" y="136.5">ATTORNEY AT LAW</tspan>
            </text>
            <text id="JENNIFER" font-family="HelveticaNeue-Light, Helvetica Neue" font-size="30" font-weight="300" letter-spacing="4.28571415" fill="#073A89">
                <tspan x="3" y="107">JENNIFER</tspan>
            </text>
            <text id="HABA-BEN-NAIM" font-family="HelveticaNeue-Light, Helvetica Neue" font-size="30" font-weight="300" letter-spacing="4.28571415" fill="#979797">
                <tspan x="184" y="107">HABA BEN NAIM</tspan>
            </text>
            <path d="M0.5,114.25 L468.5,114.25" id="Line" stroke="#979797" stroke-width="0.5" stroke-linecap="square"></path>
            <g id="drawing" transform="translate(100.000000, 0.000000)" stroke-width="0.5">
                <polyline id="left-draw" stroke="#979797" points="0 78 55 78 55 60.5324675 73 60.5324675 73 69.7662338 78 69.7662338 78 42.0649351 98 42.0649351 98 28.7272727 117 28.7272727 117 59.5064935 126 59.5064935 126 0 146 0 146 78"></polyline>
                <path d="M146,78 L154.928,78 L154.928,40 L167.824,40 L167.824,51 L179.728,51 L179.728,67 L187.664,67 L187.664,57 L210.48,57 L210.48,68 L221.392,68 L221.392,78 L270,78" id="right-draw" stroke="#073A89"></path>
            </g>
        </g>
    </g>
</svg>