<?xml version="1.0" encoding="UTF-8" standalone="no"?>
<svg width="31px" height="14px" viewBox="0 0 31 14" version="1.1" xmlns="http://www.w3.org/2000/svg" xmlns:xlink="http://www.w3.org/1999/xlink">
    <!-- Generator: Sketch 41.2 (35397) - http://www.bohemiancoding.com/sketch -->
    <title>jen-logo-mini</title>
    <desc>Created with Sketch.</desc>
    <defs></defs>
    <g id="Page-1" stroke="none" stroke-width="1" fill="none" fill-rule="evenodd">
        <g id="jen-logo-mini" transform="translate(0.000000, 1.000000)" stroke-width="0.5" stroke="#9DA2A7">
            <polyline id="left-path" points="0 12.25 4 12.25 4 9 7 9 7 11 8 11 8 6 9 6 9 4 11 4 11 8 11 9 13 9 13 0 15 0 15 12.25 15 12"></polyline>
            <polyline id="right-path" points="15 12 17 12 17 6 19 6 19 8 22 8 22 10 24 10 24 9 26 9 26 11 28 11 28 12 31 12"></polyline>
        </g>
    </g>
</svg>